<?xml version="1.0" encoding="UTF-8"?>
<svg id="Layer_1" xmlns="http://www.w3.org/2000/svg" viewBox="0 0 1908.88 525.02">
<defs><style>.cls-1{fill:#5bc084;}</style></defs>
<path class="cls-1" d="M476.9,90.06h43.33v213.42h111.58v39.36h-154.92V90.06Z"/>
<path class="cls-1" d="M642.65,162.28h43.33v180.55h-43.33v-180.55Z"/>
<path class="cls-1" d="M863.64,245.33v97.5h-43.33v-103.64c0-23.83-16.61-39.72-40.08-39.72s-40.08,15.89-40.08,39.72v103.64h-43.33v-97.5c0-53.44,30.33-85.58,83.42-85.58s83.42,32.14,83.42,85.58Z"/>
<path class="cls-1" d="M874.48,252.19c0-46.94,29.25-93.53,95.69-93.53s95.69,46.58,95.69,93.53v86.3c0,55.25-32.14,94.61-95.69,94.61h-37.56v-39.72h42.61c31.78,0,47.3-24.56,47.3-49.83v-10.47c-13.72,7.94-31.05,12.64-52.36,12.64-66.44,0-95.69-46.58-95.69-93.53ZM970.17,306c70.78,0,70.78-107.61,0-107.61s-70.78,107.61,0,107.61Z"/>
<path class="cls-1" d="M1076.7,342.83v-131.44c0-28.53,18.06-49.11,52.72-49.11h54.17v39.72h-47.67c-11.56,0-15.89,5.78-15.89,14.44v126.39h-43.33Z"/>
<path class="cls-1" d="M1194.42,162.28h43.33v180.55h-43.33v-180.55Z"/>
<path class="cls-1" d="M1399.88,291.19c0,29.97-22.03,55.25-80.17,55.25-25.28,0-55.25-5.06-71.14-13.72l16.97-37.92c12.28,6.14,40.44,11.92,54.17,11.92,27.08,0,36.83-4.33,36.83-14.44,0-23.83-105.08-14.44-105.08-77.28,0-40.08,35.75-56.33,78.72-55.97,24.56.36,42.97,5.42,59.58,14.08l-16.97,37.56c-9.39-6.14-28.89-11.92-51.64-11.92-11.92,0-26.36,3.61-26.36,11.92,0,24.92,105.08,16.25,105.08,80.53Z"/>
<path class="cls-1" d="M1598.49,279.64c-9.39,36.11-39,66.08-92.08,66.08-66.44,0-95.69-46.58-95.69-93.53s29.25-93.53,95.69-93.53c62.83,0,92.08,46.58,92.08,93.53,0,4.33-.72,9.03-1.08,13.36h-142.64c5.06,21.67,22.03,40.44,51.64,40.44,22.75,0,38.64-11.19,46.58-26.36h45.5ZM1551.55,229.44c-6.86-17.69-22.39-31.06-45.14-31.06-25.28,0-41.53,13.72-48.75,31.06h93.89Z"/>
<path class="cls-1" d="M1609.33,342.83v-131.44c0-28.53,18.06-49.11,52.72-49.11h54.17v39.72h-47.67c-11.56,0-15.89,5.78-15.89,14.44v126.39h-43.33Z"/>
<polygon class="cls-1" points="235.42 300.08 235.42 90.05 192.67 90.05 192.67 300.08 192.67 342.83 235.42 342.83 445.44 342.83 445.44 300.08 235.42 300.08"/>
<path class="cls-1" d="M389.5,89.26h-20.24l-18.11,42.75h32.75l.34-.3c-6.6,25.98-19.28,49.74-37.27,69.23-26.98,29.24-62.75,45.34-100.72,45.34v42.75c50.04,0,96.97-20.99,132.14-59.1,34.73-37.63,53.86-87.59,53.86-140.67h-42.75Z"/>
<circle class="cls-1" cx="267.63" cy="110.64" r="21.38"/>
</svg>
