<?xml version="1.0" encoding="UTF-8"?>
<svg version="1.1" xmlns="http://www.w3.org/2000/svg" width="357" height="350">
<path d="M0 0 C117.81 0 235.62 0 357 0 C357 115.5 357 231 357 350 C239.19 350 121.38 350 0 350 C0 234.5 0 119 0 0 Z " fill="#FEFEFE" transform="translate(0,0)"/>
<path d="M0 0 C18.81 0 37.62 0 57 0 C57 92.73 57 185.46 57 281 C149.73 281 242.46 281 338 281 C338 299.81 338 318.62 338 338 C226.46 338 114.92 338 0 338 C0 226.46 0 114.92 0 0 Z " fill="#5BC084" transform="translate(12,7)"/>
<path d="M0 0 C27.72 0 55.44 0 84 0 C84 23.40386736 84 23.40386736 82.75 34.5625 C82.61505127 35.79991943 82.48010254 37.03733887 82.34106445 38.31225586 C76.23330067 91.46883349 52.35579786 143.0232316 17 183 C16.27554688 183.8353125 15.55109375 184.670625 14.8046875 185.53125 C4.19684601 197.58739457 -7.06592254 208.48266336 -20 218 C-20.63744141 218.47646973 -21.27488281 218.95293945 -21.93164062 219.44384766 C-39.30527251 232.38029829 -57.97980229 242.75757347 -78 251 C-78.78052734 251.32339355 -79.56105469 251.64678711 -80.36523438 251.97998047 C-92.93712847 257.1079899 -105.69061286 260.39582864 -119 263 C-119.8142041 263.15984375 -120.6284082 263.3196875 -121.46728516 263.484375 C-135.70709814 266.21296192 -149.47383951 267 -164 267 C-164 248.19 -164 229.38 -164 210 C-155.09 209.01 -146.18 208.02 -137 207 C-104.07998502 201.48047653 -73.22016727 188.14745701 -48 166 C-47.1853125 165.29488281 -46.370625 164.58976563 -45.53125 163.86328125 C-34.13000624 153.81503319 -23.96875431 143.26312433 -15 131 C-14.38608398 130.16855469 -14.38608398 130.16855469 -13.75976562 129.3203125 C-1.11966852 111.97834352 8.30213248 92.32802793 15 72 C17.475 64.575 17.475 64.575 20 57 C5.81 57 -8.38 57 -23 57 C-21.87498157 50.24988944 -21.87498157 50.24988944 -20.29760742 46.60620117 C-19.95022018 45.794832 -19.60283295 44.98346283 -19.24491882 44.14750671 C-18.8689003 43.28800919 -18.49288177 42.42851166 -18.10546875 41.54296875 C-17.522528 40.18937004 -17.522528 40.18937004 -16.92781067 38.8084259 C-15.68725943 35.93204982 -14.43748374 33.05978768 -13.1875 30.1875 C-12.35812405 28.2678372 -11.52934193 26.34791772 -10.70117188 24.42773438 C-7.17598781 16.26564008 -3.61101347 8.12478031 0 0 Z " fill="#5BC084" transform="translate(248,6)"/>
<path d="M0 0 C7.97524073 5.37892148 12.97932162 10.3629185 15 20 C15.75796072 30.62691866 13.49354643 37.5776774 7 46 C4.4375 48.375 4.4375 48.375 2 50 C1.195625 50.556875 0.39125 51.11375 -0.4375 51.6875 C-7.1140325 55.10718738 -16.63125052 55.32611686 -23.75390625 53.1640625 C-31.92693114 49.44564812 -37.07492252 43.92013887 -40.4375 35.625 C-43.126659 27.23296932 -43.06592506 18.94573384 -39 11 C-29.89206755 -1.94890396 -14.64423606 -7.61197812 0 0 Z " fill="#5DC085" transform="translate(126,9)"/>
</svg>
